#!OML:ASF F:\VICON\USERDATA\INSTALL\rory3\rory3.ASF
:FULLY-SPECIFIED
:DEGREES
33
root -0.265747 18.6752 -11.0944 6.49122 0.203484 6.5985
lowerback 13.0908 -4.20883 -6.79684
upperback -0.155931 -6.643 -0.258158
thorax -6.75361 -3.01321 4.73543
lowerneck -4.343 3.13069 0.0798002
upperneck -9.47032 4.03083 -2.07067
head -2.18799 2.04345 -0.688134
rclavicle -5.766e-014 -1.86361e-014
rhumerus -63.3878 3.47255 -79.8261
rradius 78.5347
rwrist 3.3665
rhand -44.1303 32.4059
rfingers 7.12502
rthumb -16.9467 3.12522
lclavicle -5.766e-014 -1.86361e-014
lhumerus -27.1336 -24.9956 85.7097
lradius 119.284
lwrist 21.7909
lhand -36.0398 5.08248
lfingers 7.12502
lthumb -9.14822 34.8641
rfemur -38.4855 6.40511 10.8752
rtibia 28.1476
rfoot 2.14836 -10.5216
rtoes -6.24658
lfemur 24.5256 -6.62287 -33.9751
ltibia 24.1818
lfoot 29.7479 3.90444
ltoes -5.10349
34
root -0.25153 18.6538 -10.5451 6.35654 0.272268 7.20469
lowerback 12.5045 -4.2948 -7.14144
upperback 0.380911 -6.73645 -0.353398
thorax -5.81077 -3.11089 4.7453
lowerneck -4.55219 3.14176 -0.108684
upperneck -10.2071 4.03093 -2.16801
head -2.39727 2.05382 -0.69559
rclavicle -3.20789e-014 -1.2921e-014
rhumerus -62.0347 3.46015 -79.7868
rradius 78.4116
rwrist 3.09403
rhand -44.0883 32.2213
rfingers 7.12502
rthumb -16.9062 2.93711
lclavicle -3.20789e-014 -1.2921e-014
lhumerus -27.7617 -24.6783 86.2368
lradius 118.663
lwrist 22.1959
lhand -36.2012 5.55466
lfingers 7.12502
lthumb -9.30393 35.3294
rfemur -37.2328 6.59204 10.3431
rtibia 25.5916
rfoot 1.81302 -11.5483
rtoes -8.2387
lfemur 22.9472 -6.35796 -34.5415
ltibia 29.6166
lfoot 29.2421 2.57813
ltoes -15.6987
35
root -0.25085 18.627 -9.9982 6.31964 -0.184704 6.51585
lowerback 12.5678 -4.18342 -6.54429
upperback 0.30243 -6.48986 0.00559858
thorax -5.98276 -2.99276 4.77051
lowerneck -4.32214 3.15951 -0.491491
upperneck -10.4267 4.06103 -2.11576
head -2.51994 2.08344 -0.623919
rclavicle 3.73218e-014 -3.26007e-014
rhumerus -61.4866 3.79507 -79.6598
rradius 78.4058
rwrist 2.7979
rhand -43.4754 32.4221
rfingers 7.12502
rthumb -16.3161 3.08848
lclavicle 3.73218e-014 -3.26007e-014
lhumerus -29.5494 -24.2733 87.4658
lradius 117.933
lwrist 22.3445
lhand -36.6592 6.05067
lfingers 7.12502
lthumb -9.74584 35.8052
rfemur -36.2154 7.54307 11.3127
rtibia 23.502
rfoot 1.64635 -13.0148
rtoes -9.5305
lfemur 21.1044 -5.64812 -33.7039
ltibia 35.0948
lfoot 31.1497 1.33587
ltoes -9.37004
36
root -0.246912 18.5763 -9.4616 6.24295 -0.844721 5.69723
lowerback 12.1654 -3.98781 -5.80899
upperback 0.631534 -6.06736 0.29061
thorax -5.50173 -2.83251 4.54509
lowerneck -4.48564 3.12029 -0.831913
upperneck -10.7622 4.02881 -1.88109
head -2.61632 2.07519 -0.4947
rclavicle 5.19822e-014 3.73715e-014
rhumerus -60.2167 3.82202 -79.6689
rradius 78.4312
rwrist 2.5097
rhand -42.4077 33.2948
rfingers 7.12502
rthumb -15.2879 3.87981
lclavicle 5.19822e-014 3.73715e-014
lhumerus -30.4079 -23.766 88.0976
lradius 116.846
lwrist 22.7097
lhand -37.1012 6.24881
lfingers 7.12502
lthumb -10.1722 35.9829
rfemur -35.1299 7.96888 12.7764
rtibia 21.7976
rfoot 2.1454 -13.8629
rtoes -10.094
lfemur 19.1988 -4.69243 -32.7339
ltibia 40.7071
lfoot 31.8702 0.442977
ltoes -8.20341
37
root -0.231505 18.5302 -8.91547 5.92894 -1.18235 5.3711
lowerback 12.256 -3.93233 -5.22486
upperback 0.798091 -5.90865 0.358213
thorax -5.44435 -2.77378 4.26915
lowerneck -4.57234 3.0791 -1.14446
upperneck -10.8348 3.99949 -1.62518
head -2.63814 2.0658 -0.360581
rclavicle 1.20265e-014 8.94531e-015
rhumerus -59.242 4.17927 -79.8288
rradius 78.6306
rwrist 1.96984
rhand -41.079 34.1694
rfingers 7.12502
rthumb -14.0078 4.66135
lclavicle 1.20265e-014 8.94531e-015
lhumerus -31.8609 -23.0134 88.8641
lradius 115.754
lwrist 23.0968
lhand -37.3486 6.30362
lfingers 7.12502
lthumb -10.411 36.0259
rfemur -33.386 7.19341 14.1524
rtibia 20.2708
rfoot 3.3846 -13.2852
rtoes -10.0095
lfemur 17.6666 -3.98321 -32.336
ltibia 46.3469
lfoot 32.5902 0.108804
ltoes -6.07837
